<?xml version="1.0" encoding="UTF-8"?>
<svg id="Layer_1" data-name="Layer 1" xmlns="http://www.w3.org/2000/svg" viewBox="0 0 688 140">
  <defs>
    <style>
      .cls-1 {
        fill: #231f20;
      }

      .cls-2 {
        fill: #efaf3d;
      }
    </style>
  </defs>
  <g>
    <path class="cls-2" d="M67.24,38.61s5.46,18.83,20.38,25.3v-8.42s-8.31-5.29-12.8-16.88h-7.58Z"/>
    <path class="cls-2" d="M87.62,78.57v-8.3s-19.28-6.73-25.13-24.52c0,0-1.3-3.16-1.58-7.14h-7.43s1.53,14.15,11.42,24.43c10.12,10.52,20.92,13.95,22.71,15.53Z"/>
    <path class="cls-2" d="M41.5,38.61h6.9c-.12,0,.18,4.19.2,4.42.38,3.64,1.2,7.23,2.44,10.65,1.7,4.67,4.22,9,7.47,12.64,4.4,4.94,9.79,7.69,15.38,10.78,4.16,2.3,8.69,4.89,11.66,8.86h-10.72s-4.88-3.03-9.98-5.51c-12.23-5.93-21.06-20-22.83-33.93-.08-.6-.81-7.91-.52-7.91Z"/>
    <path class="cls-2" d="M55.57,103.07h6.7s-.24-11.81,8.29-19.62l-5.7-3-.83-.42s-8.66,8.81-8.46,23.04Z"/>
    <path class="cls-2" d="M41.43,103.07h6.86s-.2-16.98,9.67-27.08l-5.2-5.16s-11.3,13.14-11.33,32.24Z"/>
    <path class="cls-2" d="M71.87,107.53s17.78-5.78,23.89-21.58h-7.95s-4.99,8.8-15.94,13.55v8.02Z"/>
    <path class="cls-2" d="M109.6,85.96h-7.84s-6.36,20.42-23.16,26.61c0,0-2.99,1.38-6.74,1.67v7.86s13.37-1.61,23.08-12.09c9.93-10.71,13.17-22.16,14.66-24.05Z"/>
    <path class="cls-2" d="M71.87,134.79v-7.31c0,.13,3.96-.19,4.17-.21,3.44-.4,6.83-1.27,10.05-2.59,4.41-1.8,8.5-4.47,11.94-7.91,4.66-4.66,7.26-10.37,10.18-16.29,2.17-4.4,4.62-9.21,8.37-12.34v11.35s-2.87,5.17-5.2,10.56c-5.6,12.95-18.88,22.3-32.04,24.17-.57.08-7.47.86-7.47.55Z"/>
    <path class="cls-2" d="M132.74,119.9v-7.09s-11.15.26-18.53-8.78l-2.83,6.04-.4.88s8.32,9.17,21.76,8.95Z"/>
    <path class="cls-2" d="M132.74,134.86v-7.27s-16.03.21-25.58-10.24l-4.87,5.51s12.41,11.97,30.45,12Z"/>
    <path class="cls-2" d="M136.95,103.06s-5.46-18.83-20.38-25.3v8.42s8.31,5.29,12.8,16.88h7.58Z"/>
    <path class="cls-2" d="M116.58,63.1v8.3s19.28,6.73,25.13,24.52c0,0,1.3,3.16,1.58,7.14h7.43s-1.53-14.15-11.42-24.43c-10.12-10.52-20.92-13.95-22.71-15.53Z"/>
    <path class="cls-2" d="M162.7,103.06h-6.9c.12,0-.18-4.19-.2-4.42-.38-3.64-1.2-7.23-2.44-10.65-1.7-4.67-4.22-9-7.47-12.64-4.4-4.94-9.79-7.69-15.38-10.78-4.16-2.3-8.69-4.89-11.66-8.86h10.72s4.88,3.03,9.98,5.51c12.23,5.93,21.06,20,22.83,33.93.08.6.81,7.91.52,7.91Z"/>
    <path class="cls-2" d="M148.63,38.6h-6.7s.24,11.81-8.29,19.62l5.7,3,.83.42s8.66-8.81,8.46-23.04Z"/>
    <path class="cls-2" d="M162.76,38.6h-6.86s.2,16.98-9.67,27.08l5.2,5.16s11.3-13.14,11.33-32.24Z"/>
    <path class="cls-2" d="M132.74,34.12s-17.78,5.78-23.89,21.58h7.95s4.99-8.8,15.94-13.55v-8.02Z"/>
    <path class="cls-2" d="M95,55.7h7.84s6.36-20.42,23.16-26.61c0,0,2.99-1.38,6.74-1.67v-7.86s-13.37,1.61-23.08,12.09c-9.93,10.71-13.17,22.16-14.66,24.05Z"/>
    <path class="cls-2" d="M132.74,6.86v7.31c0-.13-3.96.19-4.17.21-3.44.4-6.83,1.27-10.05,2.59-4.41,1.8-8.5,4.47-11.94,7.91-4.66,4.66-7.26,10.37-10.18,16.29-2.17,4.4-4.62,9.21-8.37,12.34v-11.35s2.87-5.17,5.2-10.56c5.6-12.95,18.88-22.3,32.04-24.17.57-.08,7.47-.86,7.47-.55Z"/>
    <path class="cls-2" d="M71.87,21.75v7.09s11.15-.26,18.53,8.78l2.83-6.04.4-.88s-8.32-9.17-21.76-8.95Z"/>
    <path class="cls-2" d="M71.87,6.79v7.27s16.03-.21,25.58,10.24l4.87-5.51s-12.41-11.97-30.45-12Z"/>
  </g>
  <g>
    <g>
      <path d="M628.12,28.74v68.91H197.48V28.74h430.64ZM625.94,31.24H199.98v63.92h425.49l.47-.47V31.24Z"/>
      <path d="M419.2,38.72v51.14h-208.61v-51.14h208.61ZM254.63,56.81c-7.11-20.98-38.13-15.55-36.55,7.65,1.46,21.32,31.24,23.48,36.86,3.89h-5c-5.67,14.05-26.74,10.79-27.18-5.13-.45-16.08,20.58-20.44,27.03-6.41h4.84ZM271.8,44.33h-4.68v36.79h22.48v-4.37h-17.8v-32.43ZM323.02,48.7c-.19-1.38.49-3.29-.47-4.37h-22.02v36.79h22.8v-4.37h-18.11v-12.16h16.24v-4.37h-16.24v-11.54h17.8ZM331.76,81.13h5l3.43-8.27,17.29-.1c.8.27,3.33,7.09,3.64,8.37h5l-15.45-36.82-3.95.22-14.96,36.6ZM376.42,44.33v36.79h4.68v-28.38l19.99,28.38h4.68v-36.33c-1.17-.97-3.2-.26-4.68-.47v28.69l-19.97-28.23c-1.06-.94-3.31-.26-4.7-.46Z"/>
      <path d="M509.77,80.82h-11.09l-4.99-9.67-3.91-.31v9.98h-9.99v-34.92h17.64c1.01,0,3.88.88,4.92,1.32,8.79,3.71,9.28,17.14,1.21,21.9l6.21,11.7ZM489.47,62.73h6.71c.11,0,1.52-.87,1.73-1.08,1.9-1.8,1.69-5.56-.67-6.85-1.59-.87-6.16-1.23-7.78-.34v8.26Z"/>
      <path d="M474.17,59.61h-10.31c-2.8-7.61-14.64-6.46-15.85,1.8-1.66,11.37,11.45,14.93,16.31,5.38h9.84c-3.35,20.63-35.49,19.57-36.55-2.32-1.13-23.32,31.6-26.21,36.55-4.85Z"/>
      <path d="M512.27,80.82l13.27-34.62,9.7-.33,13.88,34.95h-10.62l-2.07-4.95c-3.4.24-7.61-.47-10.9-.06-.34.04-.7-.02-.92.33l-1.72,4.68h-10.62ZM526.94,68.66h7.49l-3.9-10.6-3.59,10.6Z"/>
      <polygon points="576.28 45.89 576.28 54.94 563.17 54.94 563.17 61.8 575.04 61.8 575.04 70.53 563.17 70.53 563.17 80.82 553.17 80.82 553.17 45.89 576.28 45.89"/>
      <polygon points="610.95 45.89 610.95 55.25 600.33 55.25 600.33 80.82 590.34 80.82 590.34 55.25 579.41 55.25 579.41 46.36 579.88 45.89 610.95 45.89"/>
      <polygon points="356.12 68.34 342.07 68.34 349.25 51.19 356.12 68.34"/>
    </g>
    <path class="cls-1" d="M641.83,27.73c-1.46,0-2.82-.26-4.07-.79-1.25-.53-2.34-1.26-3.28-2.21-.94-.95-1.66-2.04-2.18-3.29-.52-1.25-.78-2.59-.78-4.04s.26-2.79.79-4.04c.53-1.25,1.26-2.35,2.2-3.29s2.03-1.68,3.29-2.21c1.26-.53,2.62-.79,4.08-.79s2.82.26,4.08.78c1.26.52,2.35,1.24,3.28,2.18s1.65,2.02,2.17,3.26c.52,1.24.78,2.59.78,4.05s-.26,2.82-.79,4.08-1.26,2.36-2.21,3.31c-.95.95-2.04,1.68-3.29,2.21-1.25.53-2.6.79-4.07.79ZM641.83,26.41c1.27,0,2.45-.23,3.54-.7,1.09-.47,2.05-1.11,2.87-1.93s1.45-1.78,1.9-2.88c.45-1.1.67-2.29.67-3.56s-.22-2.45-.67-3.54-1.07-2.04-1.87-2.84c-.8-.8-1.74-1.43-2.82-1.89s-2.27-.69-3.56-.69-2.48.23-3.59.69-2.05,1.1-2.85,1.93c-.8.83-1.43,1.78-1.87,2.87-.45,1.08-.67,2.26-.67,3.53s.22,2.45.67,3.54c.45,1.09,1.07,2.05,1.87,2.87.8.82,1.75,1.46,2.84,1.92s2.27.69,3.54.69ZM637.7,23.25v-11.71h4.68c1.48,0,2.64.36,3.48,1.08.84.72,1.26,1.69,1.26,2.9s-.42,2.22-1.26,2.93c-.84.7-2,1.05-3.48,1.05h-2.69v3.75h-1.99ZM639.66,17.86h2.58c.94,0,1.66-.2,2.18-.61.52-.41.78-.98.78-1.73s-.26-1.31-.78-1.71c-.52-.4-1.24-.6-2.18-.6h-2.58v4.65ZM645.31,23.25l-2.93-4.51h2.02l2.93,4.51h-2.02Z"/>
    <g>
      <path class="cls-1" d="M240.62,125.13v-14.43h1.52v13.11h8.08v1.32h-9.6Z"/>
      <path class="cls-1" d="M255.5,125.23c-.81,0-1.51-.13-2.11-.4-.6-.27-1.05-.64-1.37-1.11-.32-.47-.47-1.02-.47-1.64,0-.56.13-1.07.4-1.54s.71-.83,1.32-1.11c.61-.28,1.43-.42,2.46-.42h3.73v1.09h-3.69c-1.04,0-1.77.19-2.17.56-.41.37-.61.83-.61,1.38,0,.62.24,1.11.72,1.48.48.37,1.15.56,2.02.56s1.54-.19,2.13-.57c.6-.38,1.03-.92,1.31-1.64l.33,1.01c-.28.71-.75,1.28-1.43,1.71s-1.54.64-2.57.64ZM259.23,125.13v-2.39l-.06-.39v-4c0-.92-.26-1.63-.77-2.12s-1.28-.74-2.3-.74c-.7,0-1.37.12-2,.35-.63.23-1.17.54-1.61.93l-.66-1.09c.55-.47,1.21-.83,1.98-1.08s1.58-.38,2.43-.38c1.4,0,2.48.35,3.25,1.04s1.14,1.75,1.14,3.16v6.72h-1.4Z"/>
      <path class="cls-1" d="M269.08,125.23c-.92,0-1.72-.17-2.41-.52-.69-.34-1.22-.86-1.6-1.55-.38-.69-.57-1.55-.57-2.58v-6.29h1.46v6.12c0,1.15.28,2.02.86,2.61.57.58,1.37.88,2.4.88.76,0,1.41-.15,1.97-.46s.98-.76,1.28-1.35c.3-.59.44-1.3.44-2.12v-5.67h1.46v10.82h-1.4v-2.97l.23.54c-.34.8-.88,1.42-1.6,1.87s-1.56.67-2.53.67Z"/>
      <path class="cls-1" d="M278.46,125.13v-10.82h1.4v2.97l-.23-.56c.34-.78.89-1.4,1.65-1.84.76-.45,1.66-.67,2.7-.67.88,0,1.65.17,2.32.5.67.34,1.19.85,1.57,1.54.38.69.57,1.55.57,2.6v6.29h-1.46v-6.14c0-1.14-.29-2-.86-2.59-.57-.58-1.37-.88-2.4-.88-.77,0-1.44.15-2.01.46-.57.31-1.01.76-1.32,1.34-.31.58-.46,1.29-.46,2.11v5.69h-1.46Z"/>
      <path class="cls-1" d="M296.7,125.23c-1.03,0-1.95-.23-2.77-.7-.82-.47-1.46-1.12-1.93-1.95-.47-.83-.7-1.79-.7-2.88s.23-2.06.7-2.89c.47-.82,1.11-1.47,1.93-1.93.82-.46,1.74-.69,2.77-.69.95,0,1.8.21,2.55.64.75.43,1.35,1.05,1.79,1.87.45.82.67,1.82.67,3s-.22,2.16-.66,2.99c-.44.82-1.03,1.45-1.78,1.89s-1.6.65-2.57.65ZM296.8,123.94c.77,0,1.46-.18,2.07-.53.61-.35,1.09-.85,1.44-1.48.35-.64.53-1.38.53-2.22s-.18-1.59-.53-2.23c-.35-.63-.83-1.12-1.44-1.47-.61-.35-1.3-.53-2.07-.53s-1.44.18-2.04.53c-.6.35-1.09.84-1.44,1.47-.36.63-.54,1.37-.54,2.23s.18,1.58.54,2.22c.36.64.84,1.13,1.44,1.48.6.35,1.29.53,2.04.53ZM300.88,125.13v-3.26l.14-2.18-.21-2.18v-7.67h1.46v15.29h-1.4Z"/>
      <path class="cls-1" d="M306.36,125.13v-10.82h1.4v2.95l-.14-.52c.3-.82.81-1.45,1.52-1.89s1.6-.65,2.66-.65v1.42c-.05,0-.11,0-.17-.01-.05,0-.11-.01-.16-.01-1.14,0-2.03.35-2.68,1.04-.65.69-.97,1.68-.97,2.96v5.52h-1.46Z"/>
      <path class="cls-1" d="M314.59,129.23c-.51,0-.99-.08-1.45-.25s-.86-.41-1.19-.74l.68-1.09c.27.26.57.46.9.61.32.14.68.22,1.08.22.48,0,.9-.13,1.25-.4.35-.27.68-.74,1-1.41l.7-1.59.17-.23,4.45-10.04h1.44l-5.42,12.12c-.3.7-.64,1.26-1,1.67-.36.41-.76.7-1.19.88-.43.17-.9.26-1.42.26ZM317.47,125.44l-4.99-11.13h1.52l4.41,9.93-.95,1.2Z"/>
      <path class="cls-1" d="M336.78,129.13v-19.29h1.36v19.29h-1.36Z"/>
      <path class="cls-1" d="M353.64,125.13v-14.43h5.87c1.54,0,2.89.31,4.05.92,1.16.61,2.06,1.46,2.71,2.54.65,1.09.97,2.34.97,3.75s-.32,2.67-.97,3.75c-.65,1.09-1.55,1.93-2.71,2.54-1.16.61-2.51.92-4.05.92h-5.87ZM355.17,123.81h4.27c1.28,0,2.39-.25,3.33-.75.94-.5,1.67-1.2,2.19-2.08.52-.89.78-1.91.78-3.06s-.26-2.19-.78-3.07c-.52-.88-1.25-1.57-2.19-2.07-.94-.5-2.05-.75-3.33-.75h-4.27v11.79Z"/>
      <path class="cls-1" d="M370.36,125.13v-10.82h1.4v2.95l-.14-.52c.3-.82.81-1.45,1.52-1.89s1.6-.65,2.66-.65v1.42c-.05,0-.11,0-.17-.01-.05,0-.11-.01-.16-.01-1.14,0-2.03.35-2.68,1.04-.65.69-.97,1.68-.97,2.96v5.52h-1.46Z"/>
      <path class="cls-1" d="M378.58,129.23c-.51,0-.99-.08-1.45-.25s-.86-.41-1.19-.74l.68-1.09c.27.26.57.46.9.61.32.14.68.22,1.08.22.48,0,.9-.13,1.25-.4.35-.27.68-.74,1-1.41l.7-1.59.17-.23,4.45-10.04h1.44l-5.42,12.12c-.3.7-.64,1.26-1,1.67-.36.41-.76.7-1.19.88-.43.17-.9.26-1.42.26ZM381.47,125.44l-4.99-11.13h1.52l4.41,9.93-.95,1.2Z"/>
      <path class="cls-1" d="M401.64,125.26c-1.09,0-2.09-.18-3.01-.55-.92-.36-1.72-.88-2.39-1.54s-1.2-1.44-1.58-2.33c-.38-.89-.57-1.87-.57-2.93s.19-2.03.57-2.93c.38-.89.91-1.67,1.59-2.33.68-.66,1.48-1.17,2.4-1.54s1.92-.55,3.01-.55,2.03.17,2.95.53c.92.35,1.7.88,2.33,1.58l-.97.97c-.59-.6-1.24-1.04-1.96-1.31-.71-.27-1.48-.4-2.31-.4-.87,0-1.67.15-2.41.44s-1.39.71-1.94,1.26c-.55.54-.98,1.17-1.29,1.9-.31.72-.46,1.51-.46,2.38s.15,1.66.46,2.38c.31.72.74,1.35,1.29,1.9s1.2.96,1.94,1.26,1.55.44,2.41.44,1.59-.14,2.31-.41c.71-.27,1.37-.71,1.96-1.32l.97.97c-.63.7-1.41,1.23-2.33,1.59-.92.36-1.91.54-2.97.54Z"/>
      <path class="cls-1" d="M409.68,125.13v-15.29h1.46v15.29h-1.46Z"/>
      <path class="cls-1" d="M419.82,125.23c-1.13,0-2.12-.24-2.97-.71-.85-.47-1.52-1.13-2-1.96-.48-.83-.72-1.78-.72-2.85s.23-2.02.69-2.84c.46-.82,1.09-1.47,1.9-1.95.8-.47,1.71-.71,2.71-.71s1.92.23,2.71.69c.79.46,1.41,1.11,1.87,1.94.45.83.68,1.79.68,2.87,0,.07,0,.14-.01.22,0,.08-.01.15-.01.24h-9.42v-1.09h8.63l-.58.43c0-.78-.17-1.48-.5-2.09-.34-.61-.79-1.09-1.37-1.43-.58-.34-1.24-.52-2-.52s-1.41.17-2,.52c-.59.34-1.05.82-1.38,1.44s-.49,1.33-.49,2.12v.23c0,.82.18,1.55.55,2.17.36.63.87,1.11,1.52,1.46.65.35,1.4.53,2.24.53.66,0,1.27-.12,1.84-.35.57-.23,1.06-.59,1.47-1.07l.82.95c-.48.58-1.08,1.02-1.8,1.32s-1.51.45-2.38.45Z"/>
      <path class="cls-1" d="M430.41,125.23c-.81,0-1.51-.13-2.11-.4-.6-.27-1.05-.64-1.37-1.11-.32-.47-.47-1.02-.47-1.64,0-.56.13-1.07.4-1.54s.71-.83,1.32-1.11c.61-.28,1.43-.42,2.46-.42h3.73v1.09h-3.69c-1.04,0-1.77.19-2.17.56-.41.37-.61.83-.61,1.38,0,.62.24,1.11.72,1.48.48.37,1.15.56,2.02.56s1.54-.19,2.13-.57c.6-.38,1.03-.92,1.31-1.64l.33,1.01c-.28.71-.75,1.28-1.43,1.71s-1.54.64-2.57.64ZM434.14,125.13v-2.39l-.06-.39v-4c0-.92-.26-1.63-.77-2.12s-1.28-.74-2.3-.74c-.7,0-1.37.12-2,.35-.63.23-1.17.54-1.61.93l-.66-1.09c.55-.47,1.21-.83,1.98-1.08s1.58-.38,2.43-.38c1.4,0,2.48.35,3.25,1.04s1.14,1.75,1.14,3.16v6.72h-1.4Z"/>
      <path class="cls-1" d="M439.52,125.13v-10.82h1.4v2.97l-.23-.56c.34-.78.89-1.4,1.65-1.84.76-.45,1.66-.67,2.7-.67.88,0,1.65.17,2.32.5.67.34,1.19.85,1.57,1.54.38.69.57,1.55.57,2.6v6.29h-1.46v-6.14c0-1.14-.29-2-.86-2.59-.57-.58-1.37-.88-2.4-.88-.77,0-1.44.15-2.01.46-.57.31-1.01.76-1.32,1.34-.31.58-.46,1.29-.46,2.11v5.69h-1.46Z"/>
      <path class="cls-1" d="M454.2,111.92c-.3,0-.56-.1-.76-.31-.21-.21-.31-.45-.31-.74s.1-.53.31-.73c.21-.2.46-.3.76-.3s.56.1.76.29c.21.19.31.43.31.72s-.1.56-.3.76c-.2.21-.46.31-.77.31ZM453.45,125.13v-10.82h1.46v10.82h-1.46Z"/>
      <path class="cls-1" d="M459,125.13v-10.82h1.4v2.97l-.23-.56c.34-.78.89-1.4,1.65-1.84.76-.45,1.66-.67,2.7-.67.88,0,1.65.17,2.32.5.67.34,1.19.85,1.57,1.54.38.69.57,1.55.57,2.6v6.29h-1.46v-6.14c0-1.14-.29-2-.86-2.59-.57-.58-1.37-.88-2.4-.88-.77,0-1.44.15-2.01.46-.57.31-1.01.76-1.32,1.34-.31.58-.46,1.29-.46,2.11v5.69h-1.46Z"/>
      <path class="cls-1" d="M477.28,124.72c-1.03,0-1.96-.22-2.78-.67-.82-.45-1.47-1.07-1.95-1.87s-.71-1.71-.71-2.74.24-1.94.71-2.73c.47-.79,1.12-1.41,1.95-1.84.82-.44,1.75-.66,2.78-.66.96,0,1.83.2,2.6.6.77.4,1.38.99,1.83,1.77.45.78.68,1.74.68,2.86s-.23,2.08-.68,2.86c-.45.78-1.07,1.38-1.83,1.79-.77.41-1.64.62-2.6.62ZM477.55,129.23c-.99,0-1.94-.14-2.84-.43s-1.64-.7-2.21-1.24l.74-1.11c.51.45,1.14.81,1.89,1.08.75.27,1.54.4,2.38.4,1.37,0,2.38-.32,3.03-.96.65-.64.97-1.63.97-2.98v-2.7l.21-1.86-.14-1.85v-3.28h1.4v9.5c0,1.87-.46,3.24-1.37,4.11-.91.87-2.26,1.31-4.05,1.31ZM477.42,123.42c.8,0,1.5-.17,2.12-.5s1.11-.8,1.46-1.4c.36-.6.54-1.29.54-2.07s-.18-1.47-.54-2.06c-.36-.59-.84-1.05-1.46-1.39-.62-.34-1.33-.5-2.12-.5s-1.49.17-2.11.5c-.62.34-1.11.8-1.46,1.39-.35.59-.53,1.28-.53,2.06s.18,1.47.53,2.07c.35.6.84,1.07,1.46,1.4.63.34,1.33.5,2.11.5Z"/>
      <path class="cls-1" d="M498.16,129.13v-19.29h1.36v19.29h-1.36Z"/>
      <path class="cls-1" d="M515.01,125.13v-14.43h1.52v14.43h-1.52Z"/>
      <path class="cls-1" d="M520.93,125.13v-10.82h1.4v2.95l-.14-.52c.3-.82.81-1.45,1.52-1.89s1.6-.65,2.66-.65v1.42c-.05,0-.11,0-.17-.01-.05,0-.11-.01-.16-.01-1.14,0-2.03.35-2.68,1.04-.65.69-.97,1.68-.97,2.96v5.52h-1.46Z"/>
      <path class="cls-1" d="M533.34,125.23c-1.04,0-1.98-.24-2.81-.71-.83-.47-1.49-1.13-1.97-1.96-.48-.83-.72-1.78-.72-2.85s.24-2.04.72-2.86c.48-.82,1.13-1.47,1.96-1.94.82-.47,1.77-.7,2.82-.7s2.02.23,2.85.7c.83.47,1.48,1.11,1.96,1.94.47.82.71,1.78.71,2.86s-.24,2.02-.71,2.85c-.47.83-1.13,1.48-1.97,1.96-.84.47-1.79.71-2.84.71ZM533.34,123.94c.78,0,1.48-.18,2.08-.53.6-.35,1.08-.85,1.43-1.48.35-.64.53-1.38.53-2.22s-.18-1.59-.53-2.23c-.35-.63-.83-1.12-1.43-1.47-.6-.35-1.29-.53-2.06-.53s-1.46.18-2.06.53c-.6.35-1.09.84-1.44,1.47-.36.63-.54,1.37-.54,2.23s.18,1.58.54,2.22c.36.64.84,1.13,1.44,1.48.6.35,1.29.53,2.04.53Z"/>
      <path class="cls-1" d="M541.85,125.13v-10.82h1.4v2.97l-.23-.56c.34-.78.89-1.4,1.65-1.84.76-.45,1.66-.67,2.7-.67.88,0,1.65.17,2.32.5.67.34,1.19.85,1.57,1.54.38.69.57,1.55.57,2.6v6.29h-1.46v-6.14c0-1.14-.29-2-.86-2.59-.57-.58-1.37-.88-2.4-.88-.77,0-1.44.15-2.01.46-.57.31-1.01.76-1.32,1.34-.31.58-.46,1.29-.46,2.11v5.69h-1.46Z"/>
      <path class="cls-1" d="M556.52,111.92c-.3,0-.56-.1-.76-.31-.21-.21-.31-.45-.31-.74s.1-.53.31-.73c.21-.2.46-.3.76-.3s.56.1.76.29.31.43.31.72-.1.56-.3.76c-.2.21-.46.31-.77.31ZM555.78,125.13v-10.82h1.46v10.82h-1.46Z"/>
      <path class="cls-1" d="M561.32,125.13v-10.82h1.4v2.97l-.23-.56c.34-.78.89-1.4,1.65-1.84.76-.45,1.66-.67,2.7-.67.88,0,1.65.17,2.32.5.67.34,1.19.85,1.57,1.54.38.69.57,1.55.57,2.6v6.29h-1.46v-6.14c0-1.14-.29-2-.86-2.59-.57-.58-1.37-.88-2.4-.88-.77,0-1.44.15-2.01.46-.57.31-1.01.76-1.32,1.34-.31.58-.46,1.29-.46,2.11v5.69h-1.46Z"/>
      <path class="cls-1" d="M579.6,124.72c-1.03,0-1.96-.22-2.78-.67-.82-.45-1.47-1.07-1.95-1.87s-.71-1.71-.71-2.74.24-1.94.71-2.73c.47-.79,1.12-1.41,1.95-1.84.82-.44,1.75-.66,2.78-.66.96,0,1.83.2,2.6.6.77.4,1.38.99,1.83,1.77.45.78.68,1.74.68,2.86s-.23,2.08-.68,2.86c-.45.78-1.07,1.38-1.83,1.79-.77.41-1.64.62-2.6.62ZM579.87,129.23c-.99,0-1.94-.14-2.84-.43s-1.64-.7-2.21-1.24l.74-1.11c.51.45,1.14.81,1.89,1.08.75.27,1.54.4,2.38.4,1.37,0,2.38-.32,3.03-.96.65-.64.97-1.63.97-2.98v-2.7l.21-1.86-.14-1.85v-3.28h1.4v9.5c0,1.87-.46,3.24-1.37,4.11-.91.87-2.26,1.31-4.05,1.31ZM579.75,123.42c.8,0,1.5-.17,2.12-.5s1.11-.8,1.46-1.4c.36-.6.54-1.29.54-2.07s-.18-1.47-.54-2.06c-.36-.59-.84-1.05-1.46-1.39-.62-.34-1.33-.5-2.12-.5s-1.49.17-2.11.5c-.62.34-1.11.8-1.46,1.39-.35.59-.53,1.28-.53,2.06s.18,1.47.53,2.07c.35.6.84,1.07,1.46,1.4.63.34,1.33.5,2.11.5Z"/>
    </g>
  </g>
</svg>