<svg width="534" height="512" viewBox="0 0 534 512" fill="none" xmlns="http://www.w3.org/2000/svg">
<path d="M233.895 315.299H204.968C191.228 340.61 167.364 360.136 139.161 369.537V397.74C173.149 391.955 220.878 357.966 233.895 315.299Z" fill="white"/>
<path d="M294.641 315.299H262.098C248.358 374.599 199.183 420.158 137.714 428.113L138.437 453.424C216.539 452.701 273.669 386.893 294.641 315.299Z" fill="white"/>
<path d="M301.872 451.977C336.584 482.35 392.991 485.243 392.991 485.243V512C348.155 512 308.381 492.475 284.516 476.565C275.115 470.78 267.884 464.994 264.268 462.102C234.618 488.859 193.398 510.554 138.437 509.831L139.884 485.966C139.884 485.966 195.567 487.412 240.403 446.915C285.24 406.418 298.256 355.797 327.183 327.593C327.183 342.78 327.906 369.537 327.906 369.537C327.906 369.537 325.737 376.045 320.675 385.446C320.675 385.446 319.951 386.893 319.228 389.062C323.567 394.124 328.629 398.463 333.691 402.079C359.725 420.881 392.991 424.497 392.991 424.497C392.991 424.497 394.437 446.192 394.437 452.701C358.279 454.147 330.799 437.514 314.889 425.22L304.042 415.096C303.319 416.542 302.595 417.989 301.149 419.435C297.533 425.22 293.194 431.006 288.132 437.514C291.748 442.576 296.087 447.638 301.872 451.977Z" fill="white"/>
<path d="M301.872 451.977L283.793 475.842C274.392 470.057 267.16 464.271 263.545 461.379C276.562 449.808 284.516 441.13 287.409 436.791C291.748 442.576 296.087 447.638 301.872 451.977Z" fill="#F7F7F7"/>
<path d="M333.691 401.356L316.336 425.944L303.319 414.373C309.104 405.695 315.612 394.124 318.505 388.339C323.567 393.401 328.629 397.74 333.691 401.356Z" fill="#F7F7F7"/>
<path d="M298.256 195.978H327.183C340.923 170.667 364.788 151.141 392.991 141.74V113.537C359.002 119.322 311.273 154.034 298.256 195.978Z" fill="white"/>
<path d="M237.51 195.977H270.053C283.793 136.678 332.968 91.1186 394.437 83.1638L393.714 57.8531C315.612 59.2994 258.482 124.384 237.51 195.977Z" fill="white"/>
<path d="M230.279 60.0226C195.567 29.6497 139.161 26.7571 139.161 26.7571V0C183.997 0 223.771 19.5254 247.635 35.435C257.036 41.2203 264.268 47.0056 267.884 49.8983C297.533 23.1412 338.754 1.44633 393.714 2.16949L392.268 26.0339C392.268 26.0339 336.584 24.5876 291.748 65.0847C246.912 105.582 233.895 156.203 204.968 184.407C204.968 169.22 204.245 142.463 204.245 142.463C204.245 142.463 206.415 135.955 211.477 126.554C211.477 126.554 212.2 125.107 212.923 122.938C208.584 117.876 203.522 113.537 198.46 109.921C172.426 91.1186 139.161 87.5028 139.161 87.5028C139.161 87.5028 137.714 65.8079 137.714 59.2994C173.872 57.8531 201.353 74.4859 217.262 86.7796L228.11 96.9039C228.833 95.4576 229.556 94.0113 231.002 92.565C234.618 86.7796 238.957 80.9943 244.019 74.4859C240.403 69.4237 236.065 64.3616 230.279 60.0226Z" fill="white"/>
<path d="M230.279 60.0227L247.635 35.4351C257.036 41.2204 264.268 47.0057 267.884 49.8984C254.867 61.469 246.912 70.147 244.019 74.486C240.403 69.4238 236.064 64.3617 230.279 60.0227Z" fill="#F7F7F7"/>
<path d="M198.46 110.644L215.816 86.0565L228.833 97.6271C223.047 106.305 216.539 117.876 213.646 123.661C208.584 118.599 203.522 113.537 198.46 110.644Z" fill="#F7F7F7"/>
<path d="M195.977 228.332V199.406C170.667 185.666 151.141 161.801 141.74 133.598H114.26C119.322 167.587 154.034 215.315 195.977 228.332Z" fill="white"/>
<path d="M195.978 288.355V255.813C136.678 242.073 91.1188 192.898 83.164 131.429L57.8533 132.152C59.2996 210.977 125.107 268.107 195.978 288.355Z" fill="white"/>
<path d="M60.0226 295.587C29.6497 330.299 26.7571 386.705 26.7571 386.705H0C0 341.869 19.5254 302.095 35.435 278.231C41.2203 268.83 47.0056 261.598 49.8983 257.982C23.1412 228.333 1.44633 187.112 2.16949 132.152L26.0339 133.598C26.0339 133.598 24.5876 189.282 65.0847 234.118C105.582 278.954 156.203 291.971 184.407 320.897C169.943 321.621 143.186 322.344 143.186 322.344C143.186 322.344 136.678 320.174 127.277 315.112C127.277 315.112 125.83 314.389 123.661 313.666C118.599 318.005 114.26 323.067 110.644 328.129C91.8418 354.163 88.226 387.429 88.226 387.429C88.226 387.429 66.5311 388.875 60.0226 388.875C58.5763 352.717 75.209 325.236 87.5028 309.327L97.6271 298.479C96.1808 297.756 94.7345 297.033 93.2881 295.587C87.5028 291.971 81.7175 287.632 75.209 282.57C69.4237 285.462 64.3616 290.525 60.0226 295.587Z" fill="white"/>
<path d="M60.0225 295.587L35.4349 278.231C41.2202 268.83 47.0056 261.598 49.8982 257.982C61.4688 270.999 70.1468 278.954 74.4858 281.847C69.4236 285.462 64.3615 290.525 60.0225 295.587Z" fill="#F7F7F7"/>
<path d="M110.644 328.129L86.0564 310.773L97.627 297.756C106.305 303.541 117.876 310.05 123.661 312.943C118.599 317.282 113.537 322.344 110.644 328.129Z" fill="#F7F7F7"/>
<path d="M337.714 291.668V320.594C363.025 334.334 382.55 358.199 391.951 386.402H419.432C414.369 352.413 379.658 304.684 337.714 291.668Z" fill="white"/>
<path d="M337.714 231.645V264.187C397.014 277.927 442.573 327.102 450.528 388.571L475.839 387.848C474.392 309.023 408.584 251.893 337.714 231.645Z" fill="white"/>
<path d="M473.669 224.413C504.042 189.701 506.935 133.294 506.935 133.294H533.692C533.692 178.131 514.166 217.905 498.257 241.769C492.471 251.17 486.686 258.402 483.793 262.018C510.55 291.667 532.245 332.888 531.522 387.848L507.658 386.402C507.658 386.402 509.104 330.718 468.607 285.882C428.11 241.046 377.488 228.029 349.285 199.102C363.748 198.379 390.505 197.656 390.505 197.656C390.505 197.656 397.014 199.826 406.415 204.888C406.415 204.888 407.861 205.611 410.031 206.334C415.093 201.995 419.432 196.933 423.048 191.871C441.85 165.837 445.466 132.571 445.466 132.571C445.466 132.571 467.161 131.125 473.669 131.125C475.115 167.283 458.483 194.763 446.189 210.673L436.065 221.52C437.511 222.244 438.957 222.967 440.404 224.413C446.189 228.029 451.974 232.368 458.483 237.43C464.268 234.537 469.33 229.475 473.669 224.413Z" fill="white"/>
<path d="M473.669 224.413L498.257 241.769C492.471 251.17 486.686 258.402 483.793 262.018C472.223 249.001 463.545 241.046 459.206 238.153C464.268 234.537 469.33 229.475 473.669 224.413Z" fill="#F7F7F7"/>
<path d="M423.048 191.871L447.635 209.227L436.065 222.244C427.387 216.458 415.816 209.95 410.031 207.057C415.093 202.718 420.155 197.656 423.048 191.871Z" fill="#F7F7F7"/>
</svg>
